<svg width="640" height="640" viewBox="0 0 640 640" fill="none" xmlns="http://www.w3.org/2000/svg">
  <rect width="640" height="640" fill="#23376f"/>
  <path d="M0 0H80V80H0V0ZM160 0H240V80H160V0ZM320 0H400V80H320V0ZM480 0H560V80H480V0ZM80 80H160V160H80V80ZM240 80H320V160H240V80ZM400 80H480V160H400V80ZM560 80H640V160H560V80Z" fill="#23a6a6"/>
  <path d="M0 160H80V240H0V160ZM160 160H240V240H160V160ZM320 160H400V240H320V160ZM480 160H560V240H480V160ZM80 240H160V320H80V240ZM240 240H320V320H240V240ZM400 240H480V320H400V240ZM560 240H640V320H560V240Z" fill="#f5e56b"/>
  <path d="M0 320H80V400H0V320ZM160 320H240V400H160V320ZM320 320H400V400H320V320ZM480 320H560V400H480V320ZM80 400H160V480H80V400ZM240 400H320V480H240V400ZM400 400H480V480H400V400ZM560 400H640V480H560V400Z" fill="#e85a95"/>
  <path d="M0 480H80V560H0V480ZM160 480H240V560H160V480ZM320 480H400V560H320V480ZM480 480H560V560H480V480ZM80 560H160V640H80V560ZM240 560H320V640H240V560ZM400 560H480V640H400V560ZM560 560H640V640H560V560Z" fill="#23a6a6"/>
</svg>
