<svg width="1200" height="780" viewBox="0 0 1200 780" fill="none" xmlns="http://www.w3.org/2000/svg">
  <rect width="1200" height="780" fill="#8fb7a0"/>
  <rect x="74" y="74" width="1052" height="632" rx="18" fill="#fff1c8" stroke="#2f2a21" stroke-width="8"/>
  <rect x="132" y="134" width="936" height="390" rx="14" fill="#f4d883"/>
  <circle cx="933" cy="210" r="72" fill="#f2a65f"/>
  <rect x="194" y="344" width="396" height="180" rx="26" fill="#405a68" stroke="#2f2a21" stroke-width="8"/>
  <rect x="248" y="382" width="222" height="104" rx="8" fill="#8fb7a0" stroke="#2f2a21" stroke-width="6"/>
  <rect x="498" y="389" width="42" height="42" rx="21" fill="#fff1c8"/>
  <rect x="204" y="556" width="754" height="58" rx="20" fill="#2f2a21"/>
  <rect x="674" y="372" width="220" height="152" rx="12" fill="#b04f3d" stroke="#2f2a21" stroke-width="7"/>
  <rect x="705" y="403" width="158" height="22" fill="#fff1c8"/>
  <rect x="705" y="455" width="108" height="22" fill="#fff1c8"/>
  <path d="M938 523C934 443 969 392 1019 356C1069 403 1088 458 1071 523H938Z" fill="#547d63" stroke="#2f2a21" stroke-width="7"/>
  <rect x="983" y="280" width="34" height="246" fill="#547d63"/>
  <circle cx="1001" cy="269" r="62" fill="#6ea579" stroke="#2f2a21" stroke-width="7"/>
  <circle cx="1046" cy="326" r="48" fill="#6ea579" stroke="#2f2a21" stroke-width="7"/>
  <text x="128" y="672" fill="#2a241c" font-family="Arial, sans-serif" font-size="44" font-weight="800">PORTABLE AFTERNOON</text>
</svg>
